<svg version="1.1" id="Layer_1" xmlns="http://www.w3.org/2000/svg" xmlns:xlink="http://www.w3.org/1999/xlink" x="0px" y="0px"
	 width="100%" viewBox="0 0 496 496" enable-background="new 0 0 496 496" xml:space="preserve">
<path fill="#000000" opacity="1.000000" stroke="none" 
	d="
M291.197021,198.837708 
	C287.325378,211.190765 278.980560,220.831589 274.946136,232.574722 
	C279.279327,244.465836 290.592438,241.010941 299.776672,242.592667 
	C302.812561,243.115540 305.901031,243.214645 308.735443,244.933441 
	C272.305115,244.933441 235.874786,244.933441 199.444443,244.933441 
	C203.976837,242.232986 209.024750,242.513092 213.850494,241.816177 
	C218.773865,241.105148 223.788864,241.027405 228.764221,240.678802 
	C229.921082,240.597733 231.741302,240.770737 231.897949,239.685959 
	C232.597565,234.841003 236.178238,230.162750 234.551743,225.392960 
	C232.711182,219.995361 235.719421,215.010757 233.100037,208.921356 
	C239.402298,211.014420 243.487869,214.707596 249.080658,214.230820 
	C239.263657,211.962250 232.591507,205.728836 226.620682,197.581146 
	C224.178864,198.198013 221.660156,200.142715 219.456284,202.326889 
	C209.373627,212.319366 197.335403,210.583649 185.244965,208.081543 
	C182.029678,207.416138 180.762405,204.307068 179.601135,201.511078 
	C175.153000,190.801361 174.167542,179.615662 175.205841,168.186020 
	C175.475449,165.218063 176.282684,162.284821 176.391937,159.319016 
	C176.736084,149.975433 183.642700,145.191299 189.693741,139.832672 
	C191.324402,138.388611 198.557434,140.308899 200.542450,142.613922 
	C201.720062,143.981384 202.695770,145.548492 203.598434,147.119919 
	C204.544891,148.767593 203.690765,150.701294 202.283127,150.731491 
	C198.398575,150.814865 195.706055,153.940948 192.105469,154.266724 
	C187.256088,154.705490 186.785858,157.622803 187.842010,161.301270 
	C189.876785,168.388184 194.320038,174.315689 197.056274,181.250595 
	C202.408676,179.411743 207.106125,178.393494 210.719635,173.887543 
	C215.269684,168.213715 221.725693,165.889709 229.072601,168.581406 
	C232.064529,169.677597 233.675095,167.702866 235.715347,166.286819 
	C235.558823,164.419983 233.898727,163.674408 233.097458,162.343292 
	C227.221069,166.455780 227.915009,165.073166 222.435242,161.417938 
	C215.643875,156.887848 215.596573,150.066940 213.046677,144.051529 
	C210.196930,137.328827 212.500961,131.648605 217.582352,126.975090 
	C222.577652,122.380775 228.213882,119.350937 235.261719,121.829506 
	C242.151489,124.252472 245.411285,129.514969 246.228302,136.550461 
	C246.935379,142.639420 250.499451,146.626495 256.969818,148.276138 
	C258.512756,141.080917 262.448120,134.748596 269.351257,132.698273 
	C276.121368,130.687469 278.639801,121.244644 287.329407,123.289749 
	C285.142822,122.138123 282.913727,122.683456 281.095093,123.511528 
	C277.982666,124.928703 275.780487,124.115585 273.473022,121.955803 
	C269.486359,118.224243 266.511200,113.404457 261.425659,110.812500 
	C260.810699,110.499062 260.773468,109.052055 260.436859,108.034866 
	C256.717377,111.423424 254.672302,117.172997 247.849182,116.553955 
	C244.751480,116.272911 243.211517,115.432755 242.756744,112.485176 
	C242.222382,109.021896 240.063599,105.206490 244.918274,102.962265 
	C252.437317,99.486343 259.696350,96.739311 268.202576,101.090271 
	C273.265320,103.679886 279.384766,104.140892 284.943878,105.838112 
	C292.591522,108.172981 298.219788,113.300255 302.799408,119.652122 
	C303.758606,120.982460 304.613129,122.528862 305.003815,124.102798 
	C306.315399,129.387054 298.839355,146.442535 294.105499,149.242432 
	C293.433777,149.639725 292.615265,149.788788 291.811737,150.071350 
	C289.749542,147.471588 292.299927,144.594666 290.342010,141.609634 
	C290.386902,145.691162 290.348602,149.260513 288.391937,152.392609 
	C287.532104,153.768997 288.558746,154.953857 289.048676,156.129883 
	C291.655426,162.387192 292.788483,168.878891 292.319702,175.646790 
	C291.793976,183.236786 293.880524,190.944122 291.197021,198.837708 
M270.594360,180.293747 
	C272.690277,185.582565 272.857147,191.333115 274.372040,196.758224 
	C275.142853,188.531754 273.484039,181.019135 267.891846,174.690628 
	C268.705688,176.322220 269.519562,177.953796 270.594360,180.293747 
z"/>
<path fill="#000000" opacity="1.000000" stroke="none" 
	d="
M354.663269,283.409790 
	C353.534088,281.978607 352.632477,280.808441 351.557281,279.412994 
	C349.694122,282.089020 350.472168,284.304413 350.345825,286.367798 
	C350.212189,288.550446 350.021179,290.349274 347.128754,290.281982 
	C344.333130,290.216949 343.890594,288.439514 343.876526,286.266571 
	C343.844147,281.269897 343.823914,276.272919 343.850311,271.276306 
	C343.859039,269.625153 343.741394,267.771759 345.806946,267.140045 
	C347.785828,266.534851 349.395538,267.356079 350.680206,268.858795 
	C353.259766,271.876160 355.818268,274.911469 358.795654,278.423126 
	C360.085876,275.561737 359.522400,273.103912 359.651031,270.762970 
	C359.758362,268.810913 359.900421,267.035675 362.484344,266.946350 
	C365.013062,266.858917 365.475403,268.353638 365.500000,270.478607 
	C365.559662,275.636810 365.807953,280.793091 365.845856,285.951172 
	C365.857361,287.520111 366.176056,289.514526 364.025879,290.115814 
	C362.149445,290.640503 360.392822,290.250641 359.062317,288.647766 
	C357.679779,286.982178 356.281952,285.329285 354.663269,283.409790 
z"/>
<path fill="#000000" opacity="1.000000" stroke="none" 
	d="
M134.958984,283.189209 
	C133.807449,282.079865 133.375748,280.612213 131.709412,280.485199 
	C130.574844,282.488403 131.281342,284.691986 131.030426,286.772247 
	C130.789398,288.770844 130.291351,290.286774 127.785797,290.291321 
	C124.858170,290.296661 124.682686,288.418274 124.683678,286.281982 
	C124.686012,281.282867 124.651062,276.283447 124.702454,271.284851 
	C124.718948,269.680634 124.369057,267.758698 126.550255,267.142670 
	C128.548508,266.578339 130.085861,267.470490 131.411362,268.932983 
	C133.835922,271.608124 135.711533,274.806946 139.004807,277.230164 
	C140.228210,274.721558 139.602921,272.368408 139.786163,270.139343 
	C139.946655,268.187042 140.749359,267.005066 142.827927,266.953735 
	C145.075424,266.898285 146.259399,267.952972 146.260086,270.235779 
	C146.261795,275.901093 146.417023,281.572632 146.194977,287.229309 
	C146.063446,290.579407 142.905029,291.548431 140.111969,289.073303 
	C138.259460,287.431671 136.805832,285.339935 134.958984,283.189209 
z"/>
<path fill="#000000" opacity="1.000000" stroke="none" 
	d="
M257.484833,287.764709 
	C253.640564,283.343964 253.351196,283.333191 251.233459,288.468231 
	C250.449768,290.368500 249.107529,290.266632 247.619354,290.252380 
	C246.036499,290.237213 245.021912,289.375336 245.005661,287.838531 
	C244.940628,281.691162 244.955948,275.542206 245.023590,269.394745 
	C245.037735,268.109039 245.904678,267.142059 247.194901,267.033905 
	C252.179565,266.616241 257.246979,266.232574 261.803040,268.806610 
	C265.597992,270.950653 266.642914,275.197296 264.899597,278.341461 
	C262.587646,282.511169 262.371246,285.795410 265.689972,289.563263 
	C262.251709,290.700562 259.674103,290.939636 257.484833,287.764709 
M254.512817,278.761108 
	C256.611298,278.726318 258.576904,278.393555 258.621521,275.720062 
	C258.653900,273.780212 257.342102,272.759216 255.572144,272.493622 
	C253.936691,272.248169 252.054367,272.184204 251.587433,274.265747 
	C251.166397,276.142670 250.812317,278.335938 254.512817,278.761108 
z"/>
<path fill="#000000" opacity="1.000000" stroke="none" 
	d="
M100.000519,276.078186 
	C101.098671,273.602600 101.894882,271.394287 103.011505,269.362000 
	C104.806435,266.095184 108.913216,265.748077 110.564644,268.997650 
	C113.924492,275.608948 116.784630,282.474152 119.992035,289.546417 
	C116.748833,290.480804 114.689682,290.873199 112.688446,288.304871 
	C110.126961,285.017517 104.163834,285.041046 101.334984,287.957123 
	C98.926422,290.439880 98.926445,290.439911 94.417038,289.566284 
	C95.330307,284.792084 98.225906,280.842529 100.000519,276.078186 
z"/>
<path fill="#000000" opacity="1.000000" stroke="none" 
	d="
M70.592484,289.287598 
	C69.290947,283.152008 70.073349,277.333954 69.880219,271.541870 
	C69.806137,269.320312 69.918343,267.034454 73.057602,266.975708 
	C76.180222,266.917267 76.365730,269.060516 76.353539,271.376892 
	C76.348351,272.361633 76.444229,273.346924 76.511795,274.679352 
	C81.900307,273.406982 83.373734,264.773956 90.719978,267.570435 
	C90.316490,270.917450 87.535629,272.548340 85.692436,274.650970 
	C83.661911,276.967316 83.376404,278.605927 85.605255,280.954742 
	C87.953613,283.429504 89.865311,286.318634 92.215889,289.346252 
	C87.295853,291.472321 84.459488,289.783478 82.073654,286.254852 
	C81.211517,284.979706 80.299454,283.098083 78.264915,283.660126 
	C76.549118,284.134094 76.514526,285.878876 76.333038,287.370483 
	C75.849403,291.345245 73.340004,290.476379 70.592484,289.287598 
z"/>
<path fill="#000000" opacity="1.000000" stroke="none" 
	d="
M390.856262,270.859436 
	C388.678345,273.020752 386.235626,272.029266 383.993713,272.324677 
	C382.333862,272.543427 380.142761,271.752686 379.710022,274.469177 
	C380.836975,276.337341 382.680878,275.588409 384.233398,275.791595 
	C386.391296,276.074066 389.440063,275.144012 389.368713,278.789673 
	C389.301819,282.206879 386.378784,281.015778 384.440277,281.336334 
	C382.677063,281.627869 380.234467,280.474701 379.671875,283.511688 
	C381.019623,285.752899 383.251526,284.713074 385.088531,285.066467 
	C387.303619,285.492706 390.984100,284.034698 391.019226,287.681244 
	C391.060913,292.006592 387.086761,289.828217 384.833832,290.300232 
	C383.560028,290.567078 382.183594,290.341583 380.853363,290.341827 
	C372.828308,290.343140 372.825226,290.343536 372.838501,282.071106 
	C372.844360,278.413116 372.909119,274.754608 372.865967,271.097290 
	C372.832031,268.220032 374.070648,266.776917 377.042419,266.837067 
	C380.532593,266.907776 384.025391,266.837463 387.516724,266.867584 
	C389.849823,266.887695 391.427155,267.713776 390.856262,270.859436 
z"/>
<path fill="#000000" opacity="1.000000" stroke="none" 
	d="
M203.086975,267.456543 
	C209.048920,269.424438 211.058136,272.231140 210.261032,277.364655 
	C209.523575,282.113922 206.100677,283.979126 201.802811,284.216339 
	C198.701431,284.387512 196.209671,284.564728 196.108994,288.586029 
	C196.065430,290.325806 194.366241,290.252106 193.024872,290.261963 
	C191.265579,290.274902 190.064667,289.443756 190.033432,287.670624 
	C189.928543,281.713989 189.897079,275.754364 189.963287,269.797302 
	C189.985504,267.799011 191.374054,266.909760 193.283661,266.881165 
	C196.422760,266.834198 199.578079,266.533630 203.086975,267.456543 
M199.529022,278.726868 
	C201.640411,278.734100 203.600983,278.413300 203.625778,275.719238 
	C203.643463,273.797333 202.368164,272.744446 200.578781,272.485962 
	C198.951050,272.250854 197.060928,272.114685 196.585815,274.223938 
	C196.159470,276.116730 195.847153,278.290405 199.529022,278.726868 
z"/>
<path fill="#000000" opacity="1.000000" stroke="none" 
	d="
M231.661087,276.725281 
	C231.674149,274.280182 231.692902,272.286438 231.698013,270.292694 
	C231.702820,268.417511 232.268906,267.022888 234.455841,266.940521 
	C236.450180,266.865448 237.643555,267.812531 237.837570,269.782532 
	C238.345230,274.937561 238.351746,280.120941 236.821411,285.090668 
	C235.585526,289.104187 230.436234,291.668213 225.798660,291.074463 
	C220.660599,290.416595 217.144196,287.332977 216.796295,282.599915 
	C216.492569,278.468018 216.713501,274.297760 216.696136,270.144470 
	C216.687912,268.179901 217.455368,266.996765 219.613068,266.987762 
	C221.734848,266.978912 222.656387,268.240509 222.768265,270.080627 
	C222.939423,272.895752 222.837784,275.726410 222.951767,278.546417 
	C223.073380,281.554901 222.981979,285.248810 227.106567,285.208344 
	C230.849823,285.171661 231.625961,281.911438 231.651047,278.672028 
	C231.654907,278.173553 231.657608,277.675110 231.661087,276.725281 
z"/>
<path fill="#000000" opacity="1.000000" stroke="none" 
	d="
M433.292297,267.087769 
	C435.384644,267.949890 438.053223,267.829132 437.349548,270.844177 
	C436.577057,274.154114 434.271332,272.765625 432.181976,272.491272 
	C430.377167,272.254303 428.199158,271.455627 426.803436,274.004608 
	C428.408630,276.314026 431.132538,276.139191 433.339844,276.974182 
	C436.479492,278.161804 439.247894,279.838654 439.064636,283.598907 
	C438.882050,287.345612 436.435883,289.336304 432.871674,290.454834 
	C429.285980,291.580170 425.966583,290.873932 422.649841,289.805267 
	C420.854431,289.226715 419.226105,288.173584 420.248657,285.763397 
	C421.119141,283.711609 422.602631,283.866913 424.365723,284.532532 
	C426.931519,285.501190 429.598175,286.773621 432.162628,283.863708 
	C430.496460,281.603699 427.965057,281.750763 425.917389,280.975098 
	C422.435150,279.656067 419.368774,277.921570 419.893768,273.596588 
	C420.411102,269.334473 423.522980,267.428833 427.446503,266.870422 
	C429.222870,266.617645 431.077759,266.916656 433.292297,267.087769 
z"/>
<path fill="#000000" opacity="1.000000" stroke="none" 
	d="
M412.822021,288.834778 
	C408.352844,291.684723 403.991638,291.559082 399.585297,289.941864 
	C397.710907,289.253937 395.604553,288.484161 396.687500,285.718903 
	C397.673584,283.201050 399.460449,284.070587 401.244659,284.670868 
	C403.558350,285.449249 405.953308,286.583954 408.349792,283.992737 
	C406.932739,281.493469 404.175995,281.571106 402.021698,280.785278 
	C398.513885,279.505676 396.376801,277.568909 396.632050,273.495392 
	C396.878265,269.566315 399.500244,268.098969 402.667419,267.169128 
	C405.436920,266.356079 408.252258,266.476135 411.004608,267.424194 
	C412.578278,267.966248 414.436157,268.351166 413.893555,270.670166 
	C413.367340,272.919189 411.971466,273.398926 409.749084,272.724091 
	C407.750000,272.117065 405.557831,271.608429 403.486816,273.421356 
	C404.395874,276.549286 407.349457,276.075409 409.459351,276.796753 
	C415.767029,278.953125 417.084869,283.002441 412.822021,288.834778 
z"/>
<path fill="#000000" opacity="1.000000" stroke="none" 
	d="
M292.025055,266.802673 
	C294.658295,266.828369 296.815094,266.818207 298.968597,266.896942 
	C300.680939,266.959503 301.832611,267.774567 301.842133,269.620728 
	C301.851776,271.488312 300.728333,272.247803 298.970306,272.277924 
	C296.981018,272.312042 294.989685,272.318604 293.003601,272.421082 
	C291.501923,272.498596 290.430389,273.192200 290.532227,274.876984 
	C290.621582,276.355408 291.738770,276.729401 292.977051,276.814697 
	C294.629761,276.928528 296.293823,276.918518 297.938446,277.096497 
	C299.490540,277.264526 300.223572,278.228912 300.196350,279.819824 
	C300.167816,281.487823 299.274902,282.197083 297.712463,282.255127 
	C296.718445,282.292023 295.717560,282.400940 294.730774,282.328094 
	C291.596344,282.096741 290.051422,283.398285 290.246735,286.642578 
	C290.389160,289.008484 289.510254,290.393738 286.812866,290.291168 
	C283.954681,290.182465 283.739838,288.321808 283.730408,286.204376 
	C283.713379,282.390015 283.699707,278.575562 283.702911,274.761169 
	C283.709595,266.843903 283.714539,266.843903 292.025055,266.802673 
z"/>
<path fill="#000000" opacity="1.000000" stroke="none" 
	d="
M164.341248,277.398346 
	C164.330307,280.678345 164.320450,283.508148 164.317551,286.337982 
	C164.315384,288.464874 164.180771,290.366547 161.213562,290.287476 
	C158.377121,290.211853 158.048599,288.343140 157.999054,286.228760 
	C157.928879,283.233826 157.883545,280.235687 157.943069,277.241180 
	C157.997849,274.485931 157.710175,272.176270 154.073257,272.307831 
	C152.118530,272.378571 150.840256,271.488647 151.041290,269.319641 
	C151.216965,267.424377 152.599930,266.877411 154.223495,266.863159 
	C158.883438,266.822144 163.543945,266.841187 168.204239,266.846924 
	C170.153137,266.849304 171.336838,267.650970 171.418320,269.779266 
	C171.497543,271.849182 170.266342,272.394348 168.573685,272.317749 
	C165.258881,272.167603 164.097855,273.892242 164.341248,277.398346 
z"/>
<path fill="#000000" opacity="1.000000" stroke="none" 
	d="
M328.052124,290.205780 
	C325.396210,289.495972 325.754944,287.619019 325.711823,286.028473 
	C325.630646,283.034912 325.587463,280.033966 325.706757,277.043182 
	C325.821350,274.170013 325.314880,272.066498 321.745605,272.266663 
	C320.079346,272.360168 318.830078,271.745941 318.810974,269.731934 
	C318.789642,267.477509 320.212341,266.884308 322.052795,266.865906 
	C326.545258,266.820984 331.038666,266.824493 335.531311,266.859985 
	C337.292877,266.873871 338.947388,267.234680 339.095612,269.455383 
	C339.244476,271.685669 337.801971,272.380493 335.919586,272.309692 
	C332.601501,272.184967 332.150177,274.212524 332.204193,276.846893 
	C332.272400,280.173645 332.181580,283.503326 332.207672,286.831360 
	C332.227509,289.363068 331.027924,290.503693 328.052124,290.205780 
z"/>
<path fill="#000000" opacity="1.000000" stroke="none" 
	d="
M307.577209,273.045197 
	C307.610168,271.579987 307.616730,270.581482 307.682068,269.586853 
	C307.802185,267.758118 308.830933,266.937012 310.631927,266.992889 
	C312.513916,267.051208 313.285278,268.136200 313.288116,269.887115 
	C313.298920,276.496704 313.292450,283.106262 313.292450,289.647522 
	C308.717255,291.249268 306.896912,289.770172 307.105743,285.469421 
	C307.299133,281.485931 307.422913,277.499054 307.577209,273.045197 
z"/>
<path fill="#000000" opacity="1.000000" stroke="none" 
	d="
M182.404922,275.074036 
	C182.388702,279.383362 182.378830,283.205597 182.360870,287.027771 
	C182.352188,288.874023 181.910904,290.243958 179.607437,290.295502 
	C177.085327,290.351959 176.537827,289.006470 176.564362,286.850616 
	C176.625717,281.865631 176.528183,276.878418 176.615921,271.894196 
	C176.651627,269.865509 176.006653,267.145050 179.342636,267.059998 
	C183.047867,266.965485 182.207672,269.918365 182.395706,272.095001 
	C182.466965,272.919830 182.407700,273.755920 182.404922,275.074036 
z"/>
<path fill="#000000" opacity="1.000000" stroke="none" 
	d="
M195.913101,326.612579 
	C192.968521,326.517731 191.015594,325.573090 190.424408,322.811768 
	C190.002975,320.843292 190.445312,319.149902 192.168320,317.995392 
	C193.939087,316.808899 195.828140,316.432709 197.796631,317.585541 
	C199.540726,318.606964 200.379913,320.131561 200.242630,322.147217 
	C200.073425,324.631744 198.728439,326.104218 195.913101,326.612579 
z"/>
<path fill="#000000" opacity="1.000000" stroke="none" 
	d="
M267.390076,324.238770 
	C266.691864,318.858490 269.369568,315.942352 273.353821,317.200195 
	C275.258453,317.801483 276.488098,319.118744 276.845551,321.071350 
	C277.209747,323.060852 276.435486,324.836090 274.762085,325.800873 
	C272.171295,327.294495 269.660980,326.904938 267.390076,324.238770 
z"/>
<path fill="#000000" opacity="1.000000" stroke="none" 
	d="
M293.947876,321.842468 
	C294.682404,325.676361 292.667450,326.627136 289.777313,326.524170 
	C286.891968,326.421387 285.096710,324.777924 284.969147,321.931885 
	C284.836548,318.973053 286.894714,317.430054 289.534515,317.004974 
	C292.862823,316.468994 293.779236,318.666870 293.947876,321.842468 
z"/>
<path fill="#000000" opacity="1.000000" stroke="none" 
	d="
M258.511414,324.845734 
	C256.669098,327.222107 255.465714,326.305786 255.089218,324.226776 
	C254.686737,322.004242 254.272629,319.600281 256.219421,317.325378 
	C258.386871,317.930237 260.757324,319.364441 262.952972,316.796082 
	C264.636719,320.063782 265.232758,323.075897 263.304901,325.618103 
	C261.741058,327.680237 260.359100,324.358154 258.511414,324.845734 
z"/>
<path fill="#000000" opacity="1.000000" stroke="none" 
	d="
M243.078125,318.035980 
	C245.256516,316.490997 246.112610,317.526672 246.198349,319.382080 
	C246.295853,321.491638 246.746918,323.684357 245.725281,325.527649 
	C243.316071,327.702972 240.697937,320.817932 238.870117,327.197113 
	C236.951385,323.212616 237.450073,320.413239 238.094696,317.869965 
	C240.103867,316.305298 241.150299,319.554993 243.078125,318.035980 
z"/>
<path fill="#000000" opacity="1.000000" stroke="none" 
	d="
M178.692810,321.213745 
	C178.881241,319.078857 178.948914,316.139160 181.427170,318.048676 
	C183.785110,319.865479 184.848145,317.535980 186.682663,317.469513 
	C187.691559,320.381226 187.562515,323.034058 186.743881,325.848236 
	C184.267715,326.438904 181.910172,322.652100 180.201126,326.384155 
	C178.363556,324.616058 178.850388,323.042511 178.692810,321.213745 
z"/>
<path fill="#000000" opacity="1.000000" stroke="none" 
	d="
M323.207153,318.911011 
	C323.254028,321.402863 323.673218,323.556030 322.746582,325.710632 
	C320.512695,326.729797 318.025146,323.062439 315.955139,326.599152 
	C314.090973,323.296448 314.510620,320.547119 315.468445,317.068573 
	C317.904358,319.586761 320.583984,318.444916 323.207153,318.911011 
z"/>
<path fill="#000000" opacity="1.000000" stroke="none" 
	d="
M222.582733,317.609863 
	C228.056015,317.940216 227.065201,322.449432 229.067795,326.034058 
	C225.353073,325.729004 222.529205,324.730591 219.378876,326.875519 
	C219.175308,322.693390 220.886200,320.311890 222.582733,317.609863 
z"/>
<path fill="#000000" opacity="1.000000" stroke="none" 
	d="
M210.956146,316.993774 
	C213.784439,316.980164 216.577896,317.336060 216.813843,320.054382 
	C217.199310,324.495605 212.545258,324.161377 209.773514,326.637238 
	C208.538071,322.905273 207.284836,319.874268 210.956146,316.993774 
z"/>
<path fill="#000000" opacity="1.000000" stroke="none" 
	d="
M300.256104,325.359863 
	C298.823822,325.789276 297.790497,326.591553 296.355042,325.388641 
	C297.135559,322.255096 297.594482,317.610687 301.274780,317.694580 
	C304.228241,317.761871 305.143219,322.296265 305.601562,325.480072 
	C303.664001,326.895660 302.237793,324.874603 300.256104,325.359863 
z"/>
<path fill="#000000" opacity="1.000000" stroke="none" 
	d="
M231.165909,318.713043 
	C232.544739,316.971619 233.775375,317.075775 234.048035,318.886414 
	C234.395279,321.192322 234.975433,323.678711 233.127396,326.077118 
	C229.493546,324.518921 231.192520,321.502991 231.165909,318.713043 
z"/>
<path fill="#000000" opacity="1.000000" stroke="none" 
	d="
M310.256805,325.687622 
	C307.072052,323.095703 308.158813,320.365814 309.760345,317.045441 
	C312.168030,320.061523 311.555359,322.803986 310.256805,325.687622 
z"/>
</svg>